<svg width="277" height="99" viewBox="0 0 277 99" fill="none" xmlns="http://www.w3.org/2000/svg">
<path d="M72.34 0.530014L69.53 28.66C68.98 33.59 71.78 34.17 75.9 34.44C79.22 34.66 82.82 34.33 86.19 34.41C110.41 35.01 134.82 35.31 159.05 34.83C160.78 34.32 161.62 32.76 161.59 31H139.66C137.81 31 134.33 28.72 133.13 27.27C127.83 20.9 131.87 8.15002 132.05 0.52002H144.8L143.53 13.73C143.48 16.67 144.66 17.4 147.43 17.64C152.41 18.06 158.14 17.42 163.17 17.49C164 11.94 164.49 6.17002 165.02 0.52002H178.39L174.62 38.27C173.99 44.06 169.55 47.36 163.94 47.8C152.74 48.69 139.61 47.64 128.15 47.78C109.44 48.01 91.25 48.82 72.49 47.8C59.12 47.07 54.16 44.55 54.92 29.92L58.03 0.530014H72.34Z" fill="#CCFC00"/>
<path d="M263.45 0.530014C265.93 0.840014 270.48 2.99002 272.32 4.72002C279.44 11.41 276.56 26.74 268.55 31.82L274.8 47.48H259.41C258.1 45.91 253.6 32.97 252.58 32.84C249.04 32.4 244.57 33.2 240.92 32.88L239.35 47.17H225.04L229.71 0.52002H263.45V0.530014ZM242.46 20.12H260.34C262.19 20.12 263.59 17.6 263.63 15.92C263.67 14.32 262.29 12.34 260.65 12.34H243.08L242.46 20.11V20.12Z" fill="#CCFC00"/>
<path d="M187.66 50.38C193.35 49.8 203.59 49.85 209.35 50.28C223.98 51.36 223.42 65.66 222.24 76.88C221.29 85.88 218.35 97.65 207.48 98.51C200.75 99.04 188.35 99.09 181.66 98.49C169.36 97.39 169.78 81.59 170.97 72.57C172.28 62.6 176.18 51.56 187.66 50.39V50.38ZM191.69 62.5C185.21 63.44 184.23 72.18 183.98 77.49C183.83 80.7 184.1 85.26 188.18 85.75C191.08 86.1 198.95 86.07 201.87 85.75C206.03 85.28 207.52 81.35 208.15 77.73C208.71 74.54 209.49 67.89 207.88 65.12C207.05 63.69 204.99 62.67 203.39 62.46C200.95 62.14 194.11 62.16 191.68 62.51L191.69 62.5Z" fill="#CCFC00"/>
<path d="M227.84 0.530029L226.55 11.99C218.85 12.25 211.11 11.8 203.41 12.02C202.68 12.04 202 12.32 201.26 12.36C196.27 12.57 193.93 10.82 193.32 17.64H225.82C226.05 17.64 226.16 18.02 226.16 18.27C226.18 21.65 224.93 25.66 225.04 29.14H192.07C191.86 30.3 192.3 34.74 193.78 34.74H223.95C224.1 34.74 224.46 35.25 224.43 35.51L223 47.19L189.44 47.17C173.58 45.75 176.87 18.03 182.5 8.52003C184.61 4.95003 189.75 0.530029 194.1 0.530029H227.84Z" fill="#CCFC00"/>
<path d="M84.47 97.87L85.71 83.5701H64.87C64.55 84.8101 63.88 97.87 63.16 97.87H50.41C49.91 97.87 49.91 96.6001 49.94 96.1701C50.4 87.7201 51.66 77.57 52.75 69.11C53.78 61.08 55.7 54.65 64.19 51.94C69.04 50.39 83.86 50.4 89.21 51C98.62 52.06 101.07 58.38 100.66 66.94C100.19 76.83 98.03 87.13 97.53 97.09C97.55 97.35 97.24 97.87 97.07 97.87H84.47ZM86.96 71.7401C87.35 68.0601 89.36 62.59 84.02 62.09C80.86 61.79 75.07 61.85 71.87 62.09C65.15 62.59 67.31 66.7501 66.13 71.7401H86.97H86.96Z" fill="#CCFC00"/>
<path d="M4.22998 47.49L8.61998 2.90002C8.94998 1.91002 8.56998 0.410016 9.96998 0.510016C20.07 1.03002 30.76 -0.119984 40.79 0.510016C53.3 1.30002 57.55 8.81003 54.46 20.74C50.15 37.44 33.03 31.88 20.14 32.91L18.54 47.48H4.22998V47.49ZM21.34 20.43L40.09 20.06C43.57 18.5 43.99 13.3 39.51 12.69L22.47 12.64C21.82 12.82 21.82 19.41 21.35 20.43H21.34Z" fill="#CCFC00"/>
<path d="M48.08 98.18H35.48C35.33 98.18 34.97 97.67 35 97.41L38.2 65.92C37.78 64.96 36.75 64.71 35.79 64.6C32.18 64.19 21.93 64.15 18.36 64.58C18.1 64.61 17.8 64.58 17.58 64.73L17.29 65.37L13.72 98.18H0.5L5.3 51.2L6.24 50.89C17.06 51.44 28.5 50.21 39.24 50.89C49.02 51.51 52.01 57.44 51.51 66.61L48.09 98.18H48.08Z" fill="#CCFC00"/>
<path d="M238.42 64.59L235 98.1701H221.63C221.65 97.4001 221.58 96.61 221.63 95.84C222.58 82.4401 224.13 66.87 226.02 53.59C226.17 52.54 226.1 50.7301 227.36 50.8901C238.27 51.5701 250.17 50.0301 260.96 50.9101C269.63 51.6201 272.84 57.1401 272.64 65.3801C272.4 75.3101 269.76 86.07 269.48 96.12C269.4 96.51 269.13 98.18 268.74 98.18H256.61C256.5 98.18 256.24 97.8301 256.19 97.6601L259.55 67.26C259.43 66.24 258.71 64.59 257.55 64.59H238.42Z" fill="#CCFC00"/>
<path d="M146.05 50.91L144.79 64.58H120.23L118.68 79.06C118.24 81.99 119.62 84.08 122.59 84.47C123.47 84.59 125.85 84.81 126.61 84.81H151.96L150.41 98.18C143.31 98.67 136.22 98.91 129.09 98.81C119.62 97.79 104.93 99.56 103.76 86.51C103.13 79.5 105.04 71.47 105.63 64.44L101.58 64.28L102.82 51.69C102.81 51.43 103.11 50.91 103.29 50.91H146.05Z" fill="#CCFC00"/>
<path d="M166.89 97.87H152.27L157.71 50.91H171.08C171.19 50.91 171.44 51.25 171.5 51.42L166.89 97.86V97.87Z" fill="#CCFC00"/>
<path d="M90.64 3.72003C105.83 3.19003 108.54 25.54 93.88 28.75C75.95 32.69 72.65 4.34003 90.64 3.72003Z" fill="#CCFC00"/>
</svg>
