<svg xmlns="http://www.w3.org/2000/svg" fill="none" viewBox="0 0 16 16"><path fill="#666" fill-rule="evenodd" d="M10.27 14.1a6.5 6.5 0 0 0 3.67-3.45q.27-1 .27-2.09c0-2.18-1.17-4.09-2.91-5.12a5.5 5.5 0 0 0-5.26 0C4.04 5.81 2.87 7.72 2.87 9.9c0 1.09.1 2.09.27 3.09a6.5 6.5 0 0 0 3.67 3.45 5.5 5.5 0 0 0 5.26 0 6.5 6.5 0 0 0 3.67-3.45q.27-1 .27-2.09c0-2.18-1.17-4.09-2.91-5.12a5.5 5.5 0 0 0-5.26 0C4.04 5.81 2.87 7.72 2.87 9.9c0 1.09.1 2.09.27 3.09a6.5 6.5 0 0 0 3.67 3.45 5.5 5.5 0 0 0 5.26 0Z" clip-rule="evenodd"/></svg>
