<svg xmlns="http://www.w3.org/2000/svg" width="42" height="120" viewBox="0 0 42 120" fill="none">
  <g clip-path="url(#clip0_15392_14768)">
    <path d="M24.5466 22.0148C24.8474 21.4251 25.5674 21.1892 26.1548 21.4878C26.7554 21.7847 26.9772 22.5044 26.6782 23.0956C11.2969 53.3314 14.7995 90.0703 35.5985 116.693C38.3925 120.19 36.1088 121.278 33.7138 118.169C12.3445 90.8186 8.74831 53.0768 24.5466 22.0148Z" fill="#C0FE00"/>
    <path d="M11.7319 40.7223C13.335 44.5423 14.1385 49.0904 14.1218 54.2554C10.786 53.7409 8.02388 51.615 6.25411 48.1784L6.25297 48.176C4.18896 44.1835 3.74302 38.6372 5.00989 33.1338C7.81386 34.2985 10.1165 36.8915 11.7319 40.7223Z" fill="#C0FE00"/>
    <path d="M24.6695 79.9509C26.7815 76.2024 29.9173 74.6704 32.5352 74.0774C32.6748 78.0007 31.9491 81.6663 30.3685 84.9879C28.7229 88.4291 26.2773 91.0356 23.3984 92.4503C22.2703 87.9853 22.7228 83.3945 24.6695 79.9509Z" fill="#C0FE00"/>
    <path d="M30.5377 97.3107C31.7785 93.1205 34.5602 90.9075 37.033 89.7402C38.0653 93.6008 38.1862 97.4025 37.3929 101.061C36.5443 104.93 34.7599 108.015 32.2001 110.061C30.0062 105.854 29.3815 101.172 30.5377 97.3107Z" fill="#C0FE00"/>
    <path d="M19.1485 94.1262C15.7966 95.1385 12.2697 94.4134 9.09075 92.0265L9.0889 92.0251C5.43981 89.3512 2.6033 84.4612 1.38037 78.9335C4.52824 78.7453 7.83816 80.0772 11.0241 82.8505C14.1748 85.5969 16.904 89.3868 19.1485 94.1262Z" fill="#C0FE00"/>
    <path d="M17.6935 103.209C21.4445 105.231 25.0409 108.4 28.405 112.646C25.312 114.406 21.6238 114.464 17.8874 112.784L17.8855 112.783C13.601 110.864 9.67548 106.693 7.21875 101.483C10.3066 100.589 13.8985 101.176 17.6935 103.209Z" fill="#C0FE00"/>
    <path d="M12.099 26.8341C11.008 22.4357 11.8639 16.8596 14.3825 11.7031C16.8549 13.4517 18.3782 16.4927 19.0449 20.617C19.6999 24.7296 19.4353 29.3933 18.2624 34.4933C15.1876 33.2645 13.0221 30.5879 12.099 26.8341Z" fill="#C0FE00"/>
    <path d="M22.5425 35.7697C24.3927 31.5652 27.5226 28.1895 31.0958 26.6032C34.9527 24.876 38.1904 25.5112 40.4782 26.595C38.1248 29.8913 35.3258 32.4074 32.1475 34.0835C28.8356 35.8193 25.543 36.3929 22.5425 35.7697Z" fill="#C0FE00"/>
    <path d="M18.6143 54.5498C19.5012 50.0892 21.8221 46.1633 24.9679 43.8768C28.3828 41.3839 31.7408 41.3047 34.2637 41.8618C32.7232 45.4995 30.545 48.5089 27.7757 50.821C24.9233 53.1919 21.7148 54.4888 18.6143 54.5498Z" fill="#C0FE00"/>
    <path d="M9.04788 61.7432C11.4839 65.0987 13.2843 69.3519 14.4027 74.398C10.9749 74.6416 7.76219 73.1824 5.23222 70.1995L5.23107 70.1971C2.30986 66.7623 0.638248 61.4687 0.660373 55.8474C3.7094 56.3532 6.58702 58.3701 9.04788 61.7432Z" fill="#C0FE00"/>
    <path d="M22.8186 61.898C25.6493 58.722 28.9762 57.9114 31.6123 57.9016C30.8971 61.7533 29.407 65.1484 27.1735 68.0111C24.856 70.9685 21.9514 72.9507 18.8819 73.6931C18.7791 69.1417 20.2116 64.808 22.8186 61.898Z" fill="#C0FE00"/>
    <path d="M31.0851 8.06623C33.9008 4.27991 37.8732 1.36825 42.0016 0C40.6722 4.06816 38.6485 7.96212 35.9664 11.6004C33.2487 15.2776 30.1383 18.2783 26.6958 20.5383C26.6652 16.3495 28.2131 11.8993 31.0851 8.06623Z" fill="#C0FE00"/>
  </g>
  <defs>
    <clipPath id="clip0_15392_14768">
      <rect width="42" height="120" fill="white"/>
    </clipPath>
  </defs>
</svg>