<svg width="278" height="239" viewBox="0 0 278 239" fill="none" xmlns="http://www.w3.org/2000/svg">
<path d="M277.034 26.9902C275.434 56.5502 273.834 86.1002 272.234 115.66H238.764C239.944 93.8202 241.134 71.9802 242.314 50.1402C242.884 39.5602 235.274 30.6302 225.654 30.5902C171.054 30.3702 116.454 30.1502 61.8539 29.9202C53.1039 29.8802 45.7939 37.2802 45.0939 46.8902C45.0739 47.2102 45.0439 47.5302 45.0239 47.8402H85.6139C107.024 47.3202 117.154 58.9602 116.004 82.7602L112.254 119.24L83.1939 119.32L85.8539 89.3202C86.5839 83.0702 84.2439 79.6602 78.8239 79.0902H42.7539C41.8639 91.2802 40.9739 103.47 40.0839 115.65H7.04395C9.31395 84.6502 11.5739 53.6502 13.8439 22.6502C14.7839 9.82018 24.5239 -0.0498109 36.2139 0.000189124C109.084 0.300189 181.944 0.590189 254.814 0.890189C267.654 0.940189 277.814 12.8702 277.054 26.9802L277.034 26.9902Z" fill="#CCFC00"/>
<path d="M271.864 122.32C270.184 153.38 268.494 184.44 266.814 215.5C266.104 228.56 256.254 238.73 244.374 238.66C170.324 238.22 96.2844 237.77 22.2344 237.33C9.22438 237.25 -0.975619 225.01 0.0743811 210.73C2.30438 180.27 4.53438 149.8 6.75438 119.34V122.33H39.5744C37.9744 144.16 36.3844 165.99 34.7844 187.82C34.0044 198.52 41.6444 207.69 51.3944 207.75C106.874 208.08 162.364 208.41 217.844 208.75C226.744 208.8 234.124 201.18 234.664 191.4C234.674 191.21 234.684 191.02 234.694 190.83H194.324C172.914 191.35 162.784 179.71 163.934 155.91L167.684 119.43L196.744 119.35L194.084 149.35C193.354 155.6 195.694 159.01 201.114 159.58H236.384C237.054 147.16 237.724 134.75 238.404 122.34H271.864V122.32Z" fill="#CCFC00"/>
<path d="M95.7143 190.831C111.88 190.831 124.984 177.726 124.984 161.561C124.984 145.396 111.88 132.291 95.7143 132.291C79.549 132.291 66.4443 145.396 66.4443 161.561C66.4443 177.726 79.549 190.831 95.7143 190.831Z" fill="#CCFC00"/>
<path d="M183.184 106.37C199.349 106.37 212.454 93.2655 212.454 77.1001C212.454 60.9347 199.349 47.8301 183.184 47.8301C167.019 47.8301 153.914 60.9347 153.914 77.1001C153.914 93.2655 167.019 106.37 183.184 106.37Z" fill="#CCFC00"/>
</svg>
