<svg xmlns="http://www.w3.org/2000/svg" fill="none" viewBox="0 0 283 64"><path fill="black" d="M141.04 16c-11.04 0-19 7.2-19 18s8.96 18 20 18c6.67 0 12.55-2.64 16.19-7.09l-7.65-4.73c-2.01 1.46-4.51 2.3-7.12 2.3-4.66 0-8.57-3.17-9.96-7.5H145v-4.7h-31.58c-.31 1.7-.47 3.46-.47 5.29 0 14.02 11.36 25.38 25.38 25.38 6.79 0 12.93-2.64 17.54-6.93l-7.65-4.73c-3.02 2.13-6.73 3.39-10.89 3.39-8.36 0-15.16-6.78-15.16-15.16s6.8-15.16 15.16-15.16c3.67 0 7.03 1.31 9.63 3.49l7.67-4.73c-4.51-3.86-10.32-6.17-17.3-6.17ZM248.72 16c-11.04 0-19 7.2-19 18s8.96 18 20 18c6.67 0 12.55-2.64 16.19-7.09l-7.65-4.73c-2.01 1.46-4.51 2.3-7.12 2.3-4.66 0-8.57-3.17-9.96-7.5H253v-4.7h-31.58c-.31 1.7-.47 3.46-.47 5.29 0 14.02 11.36 25.38 25.38 25.38 6.79 0 12.93-2.64 17.54-6.93l-7.65-4.73c-3.02 2.13-6.73 3.39-10.89 3.39-8.36 0-15.16-6.78-15.16-15.16s6.8-15.16 15.16-15.16c3.67 0 7.03 1.31 9.63 3.49l7.67-4.73c-4.51-3.86-10.32-6.17-17.3-6.17Zm-40.01 48h9.67L209 16h-9.5l-13.51 36.59L172.5 16h-9.67l19.02 48ZM88.84 27.3c-1.66 0-3 1.34-3 3s1.34 3 3 3 3-1.34 3-3-1.34-3-3-3Zm0 13.3c-1.66 0-3 1.34-3 3s1.34 3 3 3 3-1.34 3-3-1.34-3-3-3Zm60.34-16.66h-9.5l19.02 48h9.67L149.18 16h-9.67v48h9.67V16Z"/></svg>
